# xmcd
#
# Track frame offsets: 
#        150
#        15920
#        31587
#        44303
#        46930
#        61901
#        70384
#        80767
#        81527
#
# Disc length: 1225 seconds
#
# Revision: 0
# Processed by: cddbd v1.5.1PL2 Copyright (c) Steve Scherf et al.
# Submitted via: ExactAudioCopy v0.95a5
#
DISCID=6a04c709
DTITLE=Petit Vodo - Monom
DYEAR=1998
DGENRE=Blues
TTITLE0=Timber Bo
TTITLE1=Special Secator
TTITLE2=Kingdomgirl
TTITLE3=Matchbox Mine
TTITLE4=John's Meetings
TTITLE5=Border Line
TTITLE6=Try To Fly
TTITLE7=Happy Club
TTITLE8=Somebody's Dream
EXTD=
EXTT0=
EXTT1=
EXTT2=
EXTT3=
EXTT4=
EXTT5=
EXTT6=
EXTT7=
EXTT8=
PLAYORDER=
